<svg id="Group_1351" data-name="Group 1351" xmlns="http://www.w3.org/2000/svg" width="22.989" height="23.105" viewBox="0 0 22.989 23.105">
  <g id="Group_1221" data-name="Group 1221" transform="translate(0)">
    <path id="Path_657" data-name="Path 657" d="M478.989,74.09a1.316,1.316,0,0,0,1.316-1.316V68.907a1.316,1.316,0,1,0-2.632,0v3.867a1.316,1.316,0,0,0,1.316,1.316Z" transform="translate(-462.742 -67.591)"/>
    <path id="Path_658" data-name="Path 658" d="M420.407,74.09a1.316,1.316,0,0,0,1.316-1.316V68.907a1.316,1.316,0,1,0-2.632,0v3.867a1.316,1.316,0,0,0,1.316,1.316Z" transform="translate(-413.576 -67.591)"/>
    <path id="Path_669" data-name="Path 669" d="M447.6,83.237h-4.25V85.3h4.25V83.237Z" transform="translate(-433.934 -80.722)"/>
    <path id="Path_670" data-name="Path 670" d="M404.39,83.237H403.6V85.3h.788a1.308,1.308,0,0,1,1.306,1.306v13.848a1.308,1.308,0,0,1-1.306,1.306H388.143a1.308,1.308,0,0,1-1.306-1.306V86.608a1.308,1.308,0,0,1,1.306-1.306h.878V83.237h-.878a3.375,3.375,0,0,0-3.371,3.371v13.848a3.375,3.375,0,0,0,3.371,3.371H404.39a3.375,3.375,0,0,0,3.371-3.371V86.608a3.375,3.375,0,0,0-3.371-3.371Z" transform="translate(-384.772 -80.723)"/>
  </g>
  <path id="Path_671" data-name="Path 671" d="M414.194,118.007H408.61v5.583h5.583v-5.583Z" transform="translate(-399.946 -107.899)"/>
</svg>
