<svg id="one_leg" data-name="one leg" xmlns="http://www.w3.org/2000/svg" width="54" height="6.553" viewBox="0 0 54 6.553">
  <g id="Group_1473" data-name="Group 1473">
    <rect id="Rectangle_1631" data-name="Rectangle 1631" width="50.918" height="1.54" transform="translate(1.065 2.516)"/>
    <path id="Path_1782" data-name="Path 1782" d="M1384.709,404.536h0a.77.77,0,0,1,.006-1.089l1.98-1.96-1.98-1.959a.77.77,0,0,1-.006-1.089h0a.77.77,0,0,1,1.089-.006l3.085,3.054-3.085,3.054A.77.77,0,0,1,1384.709,404.536Z" transform="translate(-1334.884 -398.211)"/>
    <path id="Path_1785" data-name="Path 1785" d="M1220.526,404.542l-3.085-3.054,3.085-3.054a.77.77,0,0,1,1.089.006h0a.77.77,0,0,1-.006,1.089l-1.98,1.959,1.98,1.96a.77.77,0,0,1,.006,1.089h0A.77.77,0,0,1,1220.526,404.542Z" transform="translate(-1217.441 -398.211)"/>
  </g>
</svg>
