<svg xmlns="http://www.w3.org/2000/svg" width="22" height="20.475" viewBox="0 0 22 20.475"><g transform="translate(-226.04 -307.587)"><path d="M226.04,321.616a5.716,5.716,0,0,1,2.287-3.5,1.109,1.109,0,0,1,.972.14c1.339,1.173,2.627,2.4,3.924,3.61a.721.721,0,0,1-.025,1.182c-.322.306-.641.615-.979.9-.3.261-.3.487-.008.756q3.645,3.372,7.278,6.755a.506.506,0,0,0,.815-.011c.313-.313.647-.608.974-.91a.847.847,0,0,1,1.271-.022q1.941,1.78,3.86,3.58a.716.716,0,0,1-.036,1.223,21.829,21.829,0,0,1-2.3,1.511,3.858,3.858,0,0,1-3.135.026,20.662,20.662,0,0,1-6.584-3.778,29.583,29.583,0,0,1-6.832-7.416A8.522,8.522,0,0,1,226.04,321.616Z" transform="translate(0 -9.122)" fill="#003f5c"/><path d="M298.375,309.323v-1.714c5.191-.385,11.344,4.329,11.245,11.17h-1.767a9.562,9.562,0,0,0-9.477-9.456Z" transform="translate(-61.581)" fill="#003f5c"/><path d="M305.544,346.681h-1.782c-.332-3.238-2.135-5.008-5.352-5.369v-1.728A7.083,7.083,0,0,1,305.544,346.681Z" transform="translate(-62.061 -27.884)" fill="#003f5c"/></g></svg>