<?xml version="1.0" encoding="UTF-8"?>
<svg width="63px" height="53px" viewBox="0 0 63 53" version="1.1" xmlns="http://www.w3.org/2000/svg" xmlns:xlink="http://www.w3.org/1999/xlink">
    <!-- Generator: Sketch 56.3 (81716) - https://sketch.com -->
    <title>Group 5</title>
    <desc>Created with Sketch.</desc>
    <g id="PlatformPage" stroke="none" stroke-width="1" fill="none" fill-rule="evenodd">
        <g transform="translate(-344.000000, -406.000000)" id="app">
            <g transform="translate(298.000000, 368.000000)">
                <g id="Group-3" transform="translate(14.000000, 0.000000)">
                    <g id="Group-5" transform="translate(32.000000, 37.000000)">
                        <g id="heart74" fill="#000000" transform="translate(-0.000000, 0.000000)">
                            <path d="M45.8877672,1.04142857 C51.0544287,1.04142857 55.1018167,2.46136677 58.0307804,5.30208661 C60.9601688,8.14196301 62.4246506,12.0812688 62.4246506,17.1208475 C62.4246506,22.1831992 59.7839975,27.3370646 54.5026912,32.5820219 L32.9503077,53.1979052 C32.5350385,53.6103493 32.0276289,53.8165714 31.4280787,53.8165714 C30.8285286,53.8165714 30.321119,53.6103493 29.9058498,53.1979052 L8.31907287,32.513703 C8.08850933,32.3302539 7.77132523,32.0325181 7.36794518,31.6200739 C6.96456514,31.2080514 6.32425239,30.4578079 5.44785617,29.369765 C4.57145994,28.281722 3.78720421,27.165002 3.09551359,26.0200266 C2.40382297,24.8750512 1.78643919,23.4888507 1.2446361,21.8626904 C0.702833006,20.2369519 0.431506849,18.6559158 0.431506849,17.1212692 C0.431506849,12.0821123 1.89598872,8.14238473 4.82495246,5.30208661 C7.7539162,2.46178849 11.8013042,1.04142857 16.967541,1.04142857 C18.3972048,1.04142857 19.8561668,1.28771426 21.3435776,1.77986391 C22.8309885,2.27243528 24.2147943,2.93664754 25.4949952,3.7729224 C26.7751961,4.60919725 27.8762113,5.3936003 28.7988901,6.12655325 C29.7211442,6.8595062 30.5975405,7.63842686 31.4280787,8.4628935 C32.2581924,7.63842686 33.1345886,6.8595062 34.0568428,6.12655325 C34.9799462,5.3936003 36.0805368,4.60877553 37.3607377,3.7729224 C38.6400893,2.93706926 40.0238952,2.27243528 41.5117307,1.77986391 C42.9991415,1.28771426 44.4581034,1.04142857 45.8877672,1.04142857 Z M31.4549696,51.045 L53.4407955,29.9993975 C58.1921235,25.2813156 60.566857,20.813232 60.566857,16.596533 C60.566857,14.5637375 60.2951399,12.7689256 59.7526361,11.2130214 C59.2092018,9.65711723 58.5140898,8.42052692 57.6677653,7.50463679 C56.8209755,6.58874666 55.791335,5.8419866 54.5783785,5.26435659 C53.3654219,4.6871887 52.1775899,4.29809713 51.0148824,4.09754399 C49.852175,3.89699085 48.6145592,3.79671429 47.3006392,3.79671429 C45.9867193,3.79671429 44.5709055,4.11649025 43.0550587,4.7565043 C41.5382815,5.39651834 40.1420089,6.19965509 38.8657758,7.16591456 C37.5900079,8.13309823 36.4966255,9.03604945 35.5870245,9.87661663 C34.6774234,10.7176459 33.9190347,11.4893596 33.3123238,12.1922198 C32.8572907,12.7444341 32.2384828,13.0207723 31.4549696,13.0207723 C30.6719217,13.0207723 30.0521833,12.7444341 29.5976154,12.1922198 C28.9909045,11.4893596 28.2329811,10.718108 27.32338,9.87661663 C26.4133137,9.03604945 25.3203966,8.13263613 24.0441634,7.16591456 C22.7679303,6.19965509 21.3716577,5.39651834 19.855811,4.7565043 C18.339499,4.11649025 16.9241504,3.79671429 15.6102305,3.79671429 C14.2958453,3.79671429 13.0577642,3.89699085 11.895522,4.09754399 C10.7332798,4.29809713 9.54544782,4.6871887 8.33202601,5.26435659 C7.11906947,5.8419866 6.08942896,6.58828456 5.24263921,7.50463679 C4.39631472,8.42052692 3.70120269,9.65711723 3.15776838,11.2130214 C2.61479934,12.7689256 2.34308219,14.5637375 2.34308219,16.596533 C2.34308219,20.813232 4.70571867,25.2688388 9.43145689,29.9615049 L31.4549696,51.045 Z" id="Shape" fill="#FFFFFF"></path>
                        </g>
                        <g id="Group-2" transform="translate(1.000000, 16.448889)" fill="#FFFFFF">
                            <path d="M41.0068757,16.4298638 L32.5093033,4.73395884 L26.2096886,18.8831252 C26.1577417,18.9997998 26.0927295,19.1065764 26.0171421,19.2024993 C25.9138971,19.7866274 25.4673046,20.2781616 24.8514261,20.4090706 C24.041102,20.5813103 23.2445768,20.0640407 23.0723371,19.2537167 L21.2225412,10.5511113 L1.5,10.5511113 C0.671572875,10.5511113 1.01453063e-16,9.87953846 0,9.05111134 C-1.01453063e-16,8.22268421 0.671572875,7.55111134 1.5,7.55111134 L22.5,7.55111134 C23.3284271,7.55111134 24,8.22268421 24,9.05111134 C24,9.09037498 23.9984914,9.12928629 23.9955291,9.16779044 L25.0476063,14.1174247 L30.7903118,1.21909706 C30.8533298,1.07755627 30.9355757,0.950581937 31.0326039,0.839880549 C31.1157523,0.73474374 31.2144884,0.639088957 31.3282549,0.556432719 C31.9984665,0.0694954729 32.936521,0.21806871 33.4234583,0.888280333 L43.5510967,14.8277788 L57.4439957,14.342628 C58.2719182,14.3137164 58.9665195,14.9614426 58.9954312,15.789365 C59.0243429,16.6172875 58.3766167,17.3118888 57.5486942,17.3408005 L42.5578318,17.864293 C41.7340164,17.8930612 41.0422027,17.2518881 41.0068757,16.4298638 Z" id="Combined-Shape"></path>
                        </g>
                    </g>
                </g>
            </g>
        </g>
    </g>
</svg>